# xmcd
#
# Track frame offsets:
#	150
#	10275
#	24145
#	27235
#	63975
#	88500
#	119450
#	151870
#	192295
#	229720
#	256800
#
# Disc length: 3732 seconds
#
# Revision: 3
# Processed by: cddbd v1.5.1PL0 Copyright (c) Steve Scherf et al.
# Submitted via: EasyCDDAExtractor 5.1.0
#
DISCID=7a0e920b
DTITLE=Black Sabbath - Camden 26-08-04
DYEAR=2004
DGENRE=Hard Rock
TTITLE0=Ozzy and Bill Ward Talking To The Audience
TTITLE1=Sabbath Medley
TTITLE2=Supertzar
TTITLE3=War Pigs
TTITLE4=NIB
TTITLE5=Fairies Wear Boots
TTITLE6=Into The Void
TTITLE7=Black Sabbath
TTITLE8=Iron Man
TTITLE9=Children Of The Grave
TTITLE10=Paranoid
EXTD=
EXTT0=
EXTT1=
EXTT2=
EXTT3=
EXTT4=
EXTT5=
EXTT6=
EXTT7=
EXTT8=
EXTT9=
EXTT10=
PLAYORDER=
